<?xml version="1.0" encoding="utf-8"?>
<!-- Generator: Adobe Illustrator 21.1.0, SVG Export Plug-In . SVG Version: 6.00 Build 0)  -->
<svg version="1.1" id="Warstwa_1" xmlns="http://www.w3.org/2000/svg" xmlns:xlink="http://www.w3.org/1999/xlink" x="0px" y="0px"
	 viewBox="0 0 136.7 68.5" style="enable-background:new 0 0 136.7 68.5;" xml:space="preserve">
<style type="text/css">
	.st0{fill:#FFAB6A;}
	.st1{fill:#3C3C3C;}
	.st2{fill:#E2935D;}
	.st3{fill:#FBBB95;}
	.st4{fill:#E3A88A;}
	.st5{fill:#42210B;}
	.st6{fill:#D89E82;}
	.st7{fill:#261207;}
	.st8{fill:#3F3F3F;}
	.st9{fill:none;stroke:#3F3F3F;stroke-miterlimit:10;}
	.st10{fill:#FFFFFF;}
</style>
<g>
	<path class="st0" d="M79,61.6H60.7c-2.6,0-4.7-2.7-4.8-6l-1-49.2c-0.1-3.5,2-6.3,4.7-6.3H80c2.7,0,4.9,2.8,4.8,6.3l-1,49.2
		C83.7,58.9,81.5,61.6,79,61.6z"/>
	<path class="st1" d="M79.1,63H60.5c-1.3,0-2.4-1.4-2.4-3l-1-55c-0.1-1.8,1-3.2,2.4-3.2h20.6c1.4,0,2.5,1.4,2.4,3.2l-1,55
		C81.6,61.6,80.5,63,79.1,63z"/>
	<path class="st2" d="M47.4,46l-0.8-0.9c-1.1-1.4-1.1-3.5,0.1-4.8l12.7-13.5c1.2-1.3,3.2-1.2,4.3,0.2l0.8,0.9
		c1.1,1.4,1.1,3.5-0.1,4.8L51.6,46.2C50.4,47.5,48.5,47.4,47.4,46z"/>
	<path class="st0" d="M63.3,59.1l0.7-0.9c1.1-1.4,1.1-3.5-0.1-4.8L51.1,39.9c-1.2-1.3-3.2-1.2-4.3,0.2L46.1,41
		c-1.1,1.4-1.1,3.5,0.1,4.8L59,59.3C60.2,60.6,62.1,60.5,63.3,59.1z"/>
	<path class="st2" d="M92.5,46l0.8-0.9c1.1-1.4,1.1-3.5-0.1-4.8L80.4,26.8c-1.2-1.3-3.2-1.2-4.3,0.2l-0.8,0.9
		c-1.1,1.4-1.1,3.5,0.1,4.8l12.7,13.5C89.4,47.5,91.3,47.4,92.5,46z"/>
	<path class="st0" d="M76.5,59.1l-0.7-0.9c-1.1-1.4-1.1-3.5,0.1-4.8l12.7-13.5c1.2-1.3,3.2-1.2,4.3,0.2l0.7,0.9
		c1.1,1.4,1.1,3.5-0.1,4.8L80.8,59.3C79.6,60.6,77.7,60.5,76.5,59.1z"/>
	<g>
		<path class="st3" d="M65,36.3l-0.2,10c0,0.6,0.1,1.2,0.3,1.8l0.7,2c0.1,0.4,0.4,0.6,0.7,0.6h3.3V38.1L65,36.3z"/>
		<path class="st4" d="M65,36.3l-0.1,3.1c0,0,1.5,2.4,4.9,2.8v-4L65,36.3z"/>
	</g>
	<g>
		<path class="st3" d="M74.7,36.3l0.2,10c0,0.6-0.1,1.2-0.3,1.8l-0.7,2c-0.1,0.4-0.4,0.6-0.7,0.6h-3.3V38.1L74.7,36.3z"/>
		<path class="st4" d="M74.7,36.3l0.1,3.1c0,0-1.5,2.4-4.9,2.8v-4L74.7,36.3z"/>
	</g>
	<path class="st3" d="M80,24c0-1.4-1.9-1.1-1.9-1.1l-1.5-8h-1.7l-5,1.9l-5.1-1.9h-1.7l-1.5,8c0,0-1.9-0.4-1.9,1.1
		c0,1.3-0.7,3.1,1.2,4.9c0.3,0.3,0.6,0.4,1,0.4c0.2,0,0.3,0.2,0.4,0.4l0.2,1.7c0.2,1.2,0.5,2.4,1.1,3.4c0.6,1.1,1.6,2.5,3.1,4
		c0.6,0.6,1.5,1,2.3,1h0.9h0.9c0.8,0,1.7-0.4,2.3-1c1.5-1.6,2.5-3,3.1-4c0.6-1.1,1-2.2,1.1-3.4l0.2-1.7c0-0.2,0.2-0.4,0.4-0.4
		c0.4,0,0.7-0.1,1-0.4C80.7,27.2,80,25.4,80,24z"/>
	<path class="st5" d="M69.9,7.3c-0.3,0-0.6,0-0.8,0c-1.4-0.1-6.6-0.2-7.7,4.8c-1.3,5.7-0.8,12.9,1.3,12.5v-6.2c0,0,0-1.9,1.3-1.9
		s5.9,1.9,9.7-0.4s3.4,5.3,3.4,8.6c0,0,1.7-0.4,1.7-2.4s0.4-7.7,0-8.6c-0.4-0.8-1.4-4.1-4-5.6c-0.7-0.4-1.5-0.6-2.3-0.6L69.9,7.3
		L69.9,7.3z"/>
	<path class="st6" d="M61.9,25.3V28C61.9,28,60.2,25.9,61.9,25.3z"/>
	<path class="st6" d="M77.9,25.3V28C77.9,28,79.6,25.9,77.9,25.3z"/>
	<path class="st5" d="M64.8,25.1c-0.3,0.6-0.3,0.7-0.6,1.3c0.4,0.7,1.2,1.1,2,1.1s1.6-0.4,2-1.1c-0.3-0.6-0.3-0.7-0.6-1.3H64.8z"/>
	<path class="st5" d="M72.1,25.1c-0.3,0.6-0.3,0.7-0.6,1.3c0.4,0.6,1.1,1.1,2,1.1c0.8,0,1.6-0.4,2-1.1c-0.3-0.6-0.3-0.7-0.6-1.3
		H72.1z"/>
	<path class="st7" d="M64.1,24c0,0,2.4,0.4,3.8,0.4c0.2,0,0.3-0.3,0.1-0.4C67,23.4,64.8,22.2,64.1,24z"/>
	<path class="st7" d="M75.4,24c0,0-2.4,0.4-3.8,0.4c-0.2,0-0.3-0.3-0.1-0.4C72.5,23.4,74.7,22.2,75.4,24z"/>
	<path class="st1" d="M83.6,59.9H56.1c-1.5,0-2.8-1.1-2.8-2.5V30.8c0-1.3,1.2-2.5,2.8-2.5h27.5c1.5,0,2.8,1.1,2.8,2.5v26.7
		C86.4,58.8,85.1,59.9,83.6,59.9z"/>
	<rect x="51.7" y="59.9" class="st1" width="36.4" height="1.1"/>
	<rect y="61.1" class="st0" width="136.7" height="4"/>
	<rect x="3" y="65" class="st1" width="130.8" height="3.5"/>
	<g>
		<path class="st0" d="M28.3,57.9c-3,0-5.5,1.8-5.5,4.1h10.9C33.8,59.8,31.3,57.9,28.3,57.9z"/>
		<rect x="28" y="56.7" class="st8" width="0.7" height="1.7"/>
		<polygon class="st9" points="27.4,55.9 27.1,55.9 20.6,40.6 21,40.6 		"/>
		<polygon class="st9" points="29.5,55.9 29.1,55.9 22.7,40.6 23,40.6 		"/>
		<polygon class="st9" points="21.1,40.2 21.4,40.2 31.1,24.9 30.7,24.9 		"/>
		<rect x="26.6" y="55.8" class="st8" width="3.4" height="0.8"/>
		<rect x="20.1" y="39.8" class="st8" width="3.4" height="0.8"/>
		<polygon class="st0" points="33,21.4 30.9,23.3 28.8,34.1 42.2,24.7 		"/>
	</g>
	<ellipse class="st10" cx="67" cy="26.9" rx="0.3" ry="0.4"/>
	<ellipse class="st10" cx="72.8" cy="26.9" rx="0.3" ry="0.4"/>
</g>
</svg>
