<svg xmlns="http://www.w3.org/2000/svg" viewBox="0 0 1366 422"><defs><style>.cls-1{fill:#f4f4f4;}</style></defs><title>building</title><g id="Warstwa_1" data-name="Warstwa 1"><path class="cls-1" d="M1330,278.4V138.17h-48V101h-57V231h-41V143.32h-61.5v24.52h-32.91V132.78H1089v-3.09h-4V88.45h-15V47.2h-13.71V17.3H1043V47.2h-12V91.54h-11v41.24h-9V237.15h-8V191.78H956V160.85H908v30.93h-1.75L883,129l-21.22,62.78H860V172.19H806v-133H792V11.34H763V39.18H748v76.3H737.5V143H724V85.58L663,44.34l13,27.84h0L663,44.34V72.18h-9V45H595.5V72.18H573V322.73h-8V215.5h-5.44V134h-22V47H494v87H472.5v92.84H449V183.54H413v43.31h-7V188.69h-6V147.45H385V106.2H371.29V76.3H358v29.9H346v44.34H335v41.24h-9V265h-9V333H273V79.2H251.2c-5.68-7.16-19.45-12.35-35.83-12.9L210,9l-4.43,57.53C191,67.73,179,72.64,173.8,79.2H148v74.43H121V137H96V72H47v71H22v40.54H0V430H573v1h793V278.4ZM677,74.2l15,32h-.06L677,74.26Zm449,73.24h.12v20.39H1126Z" transform="translate(0 -9)"/></g></svg>