<svg id="Layer_1" data-name="Layer 1" xmlns="http://www.w3.org/2000/svg" viewBox="0 0 20 22"><defs><style>.cls-1{fill:#1f62ae;}.cls-2{fill:#347dc6;}.cls-3{fill:#fff;}</style></defs><title>css3</title><polygon class="cls-1" points="18.13 19.86 10 22 1.88 19.86 0 0 20 0 18.13 19.86"/><polygon class="cls-2" points="10 1.38 10 20.45 16.59 18.57 18.35 1.38 10 1.38"/><polygon class="cls-3" points="15.97 4.13 4 4.13 4.29 6.88 10 6.88 4.46 8.93 4.73 11.69 12.5 11.69 12.26 14.44 10 15.12 7.76 14.43 7.52 13.06 4.86 13.06 5.19 16.49 10 17.87 14.8 16.49 15.51 8.93 10.02 8.93 15.71 6.88 15.97 4.13"/></svg>