<?xml version="1.0" encoding="utf-8"?>
<!-- Generator: Adobe Illustrator 21.1.0, SVG Export Plug-In . SVG Version: 6.00 Build 0)  -->
<svg version="1.1" xmlns="http://www.w3.org/2000/svg" xmlns:xlink="http://www.w3.org/1999/xlink" x="0px" y="0px"
	 viewBox="0 0 110.4 241.7" style="enable-background:new 0 0 110.4 241.7;" xml:space="preserve">
<style type="text/css">
	.st0{fill:#F29B34;}
	.st1{fill:#3F3F3F;}
	.st2{fill:#FFFFFF;}
	.st3{fill:#FFAB6A;}
	.st4{opacity:0.2;fill:#FFFFFF;}
	.st5{fill:#3F3F3F;stroke:#FCC7A9;stroke-width:5;stroke-miterlimit:10;}
	.st6{opacity:0.43;fill:#3F3F3F;}
</style>
<g id="Warstwa_2">
</g>
<g id="Warstwa_1">
	<g>
		<g>
			<g>
				<polygon class="st0" points="64.2,139.1 54.7,134.4 54.7,133.9 54.2,134.1 53.7,133.9 53.7,134.4 44.2,139.1 				"/>
				<path class="st1" d="M63.6,152.2c5-1.7,12.3,6,12.3,6C70.8,145,63.6,145,63.6,145c2.4-1.2,7.7,1.5,7.7,1.5
					C62.2,127.1,55,134.7,55,134.7s-7.3-7.5-16.3,11.8c0,0,5.4-2.6,7.7-1.5c0,0-7.2,0-12.3,13.2c0,0,7.4-7.7,12.3-6
					c0,0-12.3,14.2,8.6,43.7C75.9,166.4,63.6,152.2,63.6,152.2z"/>
				<g>
					<path class="st2" d="M70.6,145.9c0,0-5.1-2.5-7.4-1.4c0,0,0.5,0,1.3,0.2c2.6-0.3,6.8,1.7,6.8,1.7c-5.1-10.9-9.7-13.2-12.7-13.2
						C61.5,133.3,65.8,135.6,70.6,145.9z"/>
					<path class="st2" d="M45.4,144.7c0.8-0.2,1.3-0.2,1.3-0.2c-2.3-1.1-7.4,1.4-7.4,1.4c4.8-10.3,9.1-12.6,12-12.6
						c-3,0-7.5,2.3-12.7,13.2C38.6,146.4,42.8,144.4,45.4,144.7z"/>
					<path class="st2" d="M75.9,158.2c-1.9-5-4.2-8.1-6.2-10c1.8,1.9,3.6,4.7,5.3,8.9c0,0-7.1-7.4-11.8-5.8c0,0,0.2,0.3,0.6,0.8
						C68.7,150.6,75.9,158.2,75.9,158.2z"/>
					<path class="st2" d="M46.2,152.1c0.3-0.5,0.6-0.8,0.6-0.8c-4.7-1.6-11.8,5.8-11.8,5.8c1.6-4.3,3.5-7.1,5.3-8.9
						c-2,1.9-4.3,5-6.2,10C34,158.2,41.2,150.6,46.2,152.1z"/>
					<path class="st2" d="M55,193.2c-14.7-20.7-12.3-33.5-9.9-38.9c-2.5,4.9-6.4,18.6,9.9,41.6c16.3-23,12.4-36.7,9.9-41.6
						C67.2,159.6,69.6,172.5,55,193.2z"/>
				</g>
				<path class="st2" d="M49.5,138.4l5.8,42.9c0,0.1,0.1,0.1,0.1,0l5.4-42.2L49.5,138.4z"/>
				<g>
					<path class="st3" d="M28.9,83.4c0,0-21.2,23.5-20.9,26.1c0.3,2.6,0,31.6,0,31.6s35.6-26.5,40.5-27
						C53.3,113.8,28.9,83.4,28.9,83.4z"/>
					<path class="st3" d="M80.5,83.4c0,0,21.2,23.5,20.9,26.1c-0.3,2.6,0,31.6,0,31.6s-35.6-26.5-40.5-27
						C56,113.8,80.5,83.4,80.5,83.4z"/>
					<path class="st3" d="M84.1,65.9c-1.5-24.8-9-45.7-16.8-58.8c-5.7-9.5-19.5-9.5-25.2,0c-7.8,13.1-15.3,33.9-16.8,58.8
						c-2.3,38.9,13.2,70.5,29.4,70.5S86.4,104.9,84.1,65.9z"/>
					<path class="st4" d="M49.3,18.5c0,0-34.8,49.7-5,109.4l10.1,4.6C54.4,132.5,23.4,81,49.3,18.5z"/>
					<ellipse class="st5" cx="54.7" cy="18" rx="7.3" ry="6.5"/>
					<ellipse class="st5" cx="54.7" cy="62.2" rx="11.2" ry="9.9"/>
					<path class="st1" d="M66.7,127.7c-1.5-2.9-22.6-2.9-24.1,0c-2,4-4.3,9.3-3.5,10.9l15.6,2.5l15.6-2.5
						C71,137.1,68.7,131.8,66.7,127.7z"/>
					<path class="st6" d="M41.5,139.1c-0.8-1.6,1.9-12.9,1.2-11.4c-2,4-4.3,9.3-3.5,10.9L41.5,139.1z"/>
					<path class="st3" d="M58.3,12.3L51,23.6c3.5,1.8,8.1,0.7,10.1-2.4C63.1,18.1,61.9,14.1,58.3,12.3z"/>
					<path class="st1" d="M58.3,12.3L51,23.6c-3.5-1.8-4.8-5.8-2.7-8.9C50.3,11.6,54.8,10.5,58.3,12.3z"/>
					<path class="st3" d="M60.1,54L49.2,70.8c5.3,2.7,12,1.1,15-3.6C67.2,62.6,65.4,56.6,60.1,54z"/>
					<path class="st1" d="M60.1,54L49.2,70.8c-5.3-2.7-7.1-8.6-4.1-13.3C48.2,52.9,54.9,51.3,60.1,54z"/>
					<path class="st3" d="M5.6,146.7L5.6,146.7c-1.6,0-2.9-1.3-2.9-2.9v-41.7c0-1.6,1.3-2.9,2.9-2.9h0c1.6,0,2.9,1.3,2.9,2.9v41.7
						C8.5,145.4,7.2,146.7,5.6,146.7z"/>
					<path class="st3" d="M103.7,146.7L103.7,146.7c-1.6,0-2.9-1.3-2.9-2.9v-41.7c0-1.6,1.3-2.9,2.9-2.9h0c1.6,0,2.9,1.3,2.9,2.9
						v41.7C106.6,145.4,105.3,146.7,103.7,146.7z"/>
				</g>
				<polygon class="st2" points="56.3,200.1 54.9,201.5 53.7,200.1 53.7,241.7 54.9,239.9 				"/>
				<g>
					<polygon class="st2" points="54.4,201.5 54.6,201.2 53.7,200.1 53.7,200.7 					"/>
					<polygon class="st2" points="55.8,200.6 54.4,239.9 53.7,241 53.7,241.7 54.9,239.9 56.3,200.1 					"/>
				</g>
				<polygon class="st2" points="66.8,187.7 66.2,188.3 65.7,187.7 65.7,204.1 66.2,203.4 				"/>
				<polygon class="st2" points="110.4,116.4 109.8,118.5 109.2,116.4 109.2,176.5 109.8,174 				"/>
				<polygon class="st2" points="1.1,136.5 0.5,137.7 0,136.5 0,171.1 0.5,169.7 				"/>
			</g>
			<path class="st1" d="M29.8,107.1c0,0,24.9-11.2,52.7-12.6c0,0,2.3-11,1.7-25c0,0-45.4,7.1-58.5,17.5
				C25.7,86.9,27.3,102.2,29.8,107.1z"/>
		</g>
		<path class="st1" d="M26,57.9c0,0,39.6-16.3,54.8-15.2c0,0-2.8-11.9-5.4-18.2c0,0-34.6,4.8-45.8,13.6C29.6,38.1,26.7,49.8,26,57.9
			z"/>
	</g>
</g>
</svg>
